<svg xmlns="http://www.w3.org/2000/svg" width="256" height="256" viewBox="0 0 100 100"><rect width="100" height="100" rx="50" fill="#ce2222"></rect><path fill="#fff" d="M16.94 60.21L16.94 60.21Q15.70 60.21 14.50 59.83Q13.30 59.45 12.16 58.89Q11.02 58.33 9.93 57.76Q8.84 57.19 7.83 56.82Q6.82 56.45 5.88 56.45L5.88 56.45Q5.40 56.45 4.94 56.56Q4.48 56.67 4.06 56.93L4.06 56.93Q3.84 56.61 3.70 56.30Q3.56 55.99 3.56 55.71L3.56 55.71Q3.56 55.05 4.21 54.56Q4.86 54.07 6.20 54.07L6.20 54.07Q6.50 54.07 6.99 54.12Q7.48 54.17 7.82 54.17L7.82 54.17Q9.14 54.17 10.07 53.73Q11.00 53.29 11.65 52.54Q12.30 51.79 12.74 50.89L12.74 50.89Q13.14 50.03 13.40 48.77Q13.66 47.51 13.66 46.29L13.66 46.29Q13.66 44.49 13.23 43.59Q12.80 42.69 11.72 42.69L11.72 42.69Q10.98 42.69 10.35 43.12Q9.72 43.55 9.24 44.27Q8.76 44.99 8.41 45.91Q8.06 46.83 7.88 47.83Q7.70 48.83 7.70 49.79L7.70 49.79Q7.70 50.77 7.91 51.22Q8.12 51.67 8.36 51.67L8.36 51.67Q8.74 51.67 8.92 51.23Q9.10 50.79 9.10 50.19L9.10 50.19Q9.10 49.65 8.96 49.09Q8.82 48.53 8.56 48.21L8.56 48.21Q8.90 47.73 9.38 47.51Q9.86 47.29 10.36 47.29L10.36 47.29Q11.06 47.29 11.53 47.76Q12.00 48.23 12.00 49.17L12.00 49.17Q12.00 49.91 11.71 50.64Q11.42 51.37 10.86 51.98Q10.30 52.59 9.51 52.96Q8.72 53.33 7.70 53.33L7.70 53.33Q7.02 53.33 6.36 53.15Q5.70 52.97 5.16 52.53Q4.62 52.09 4.31 51.37Q4.00 50.65 4.00 49.59L4.00 49.59Q4.00 48.29 4.37 47.07Q4.74 45.85 5.43 44.79Q6.12 43.73 7.09 42.94Q8.06 42.15 9.27 41.71Q10.48 41.27 11.88 41.27L11.88 41.27Q14.48 41.27 15.96 42.60Q17.44 43.93 17.44 46.55L17.44 46.55Q17.44 48.27 16.94 49.60Q16.44 50.93 15.62 51.92Q14.80 52.91 13.80 53.59Q12.80 54.27 11.76 54.64Q10.72 55.01 9.82 55.13L9.82 55.13Q10.46 55.31 11.34 55.63Q12.22 55.95 13.27 56.27Q14.32 56.59 15.44 56.80Q16.56 57.01 17.68 57.01L17.68 57.01Q18.30 57.01 18.91 56.93Q19.52 56.85 20.10 56.65L20.10 56.65Q20.46 57.21 20.46 57.79L20.46 57.79Q20.46 58.39 20.04 58.95Q19.62 59.51 18.83 59.86Q18.04 60.21 16.94 60.21ZM21.30 55.27L21.30 55.27Q20.44 55.27 19.75 54.99Q19.06 54.71 18.67 54.12Q18.28 53.53 18.28 52.57L18.28 52.57Q18.28 52.09 18.41 51.18Q18.54 50.27 18.82 48.69Q19.10 47.11 19.52 44.67L19.52 44.67L23.54 44.27Q23.12 46.43 22.84 47.92Q22.56 49.41 22.37 50.38Q22.18 51.35 22.10 51.95Q22.02 52.55 22.02 52.95L22.02 52.95Q22.02 53.21 22.07 53.45Q22.12 53.69 22.26 53.84Q22.40 53.99 22.72 53.99L22.72 53.99Q23.26 53.99 23.61 53.59Q23.96 53.19 24.16 52.60Q24.36 52.01 24.46 51.49L24.46 51.49L25.66 44.67L29.66 44.27L28.22 51.89Q28.20 52.05 28.16 52.29Q28.12 52.53 28.12 52.73L28.12 52.73Q28.12 53.11 28.34 53.43Q28.56 53.75 29.06 53.79L29.06 53.79Q28.90 54.29 28.48 54.62Q28.06 54.95 27.54 55.11Q27.02 55.27 26.52 55.27L26.52 55.27Q25.86 55.27 25.28 54.99Q24.70 54.71 24.52 54.13L24.52 54.13Q23.98 54.69 23.12 54.98Q22.26 55.27 21.30 55.27ZM32.74 55.27L32.74 55.27Q31.74 55.27 31.10 54.76Q30.46 54.25 30.46 53.21L30.46 53.21Q30.46 52.83 30.54 52.21Q30.62 51.59 30.75 50.90Q30.88 50.21 31 49.59Q31.12 48.97 31.20 48.59L31.20 48.59L31.96 44.67L35.98 44.27L34.50 51.89Q34.48 52.05 34.44 52.29Q34.40 52.53 34.40 52.73L34.40 52.73Q34.40 53.11 34.62 53.43Q34.84 53.75 35.34 53.79L35.34 53.79Q35.10 54.55 34.34 54.91Q33.58 55.27 32.74 55.27ZM34.54 43.07L34.54 43.07Q33.62 43.07 33.01 42.67Q32.40 42.27 32.40 41.51L32.40 41.51Q32.40 40.73 33.05 40.30Q33.70 39.87 34.62 39.87L34.62 39.87Q35.54 39.87 36.12 40.29Q36.70 40.71 36.70 41.47L36.70 41.47Q36.70 42.25 36.08 42.66Q35.46 43.07 34.54 43.07ZM40.74 55.27L40.74 55.27Q38.84 55.27 37.71 54.26Q36.58 53.25 36.58 51.05L36.58 51.05Q36.58 49.61 37.03 48.38Q37.48 47.15 38.34 46.22Q39.20 45.29 40.42 44.78Q41.64 44.27 43.14 44.27L43.14 44.27Q44.06 44.27 44.80 44.48Q45.54 44.69 45.97 45.16Q46.40 45.63 46.40 46.43L46.40 46.43Q46.40 47.49 45.69 47.96Q44.98 48.43 44.02 48.43L44.02 48.43Q43.84 48.43 43.57 48.39Q43.30 48.35 43.12 48.27L43.12 48.27Q43.28 47.87 43.38 47.29Q43.48 46.71 43.48 46.27L43.48 46.27Q43.48 45.93 43.37 45.69Q43.26 45.45 42.90 45.45L42.90 45.45Q42.42 45.45 42.02 45.85Q41.62 46.25 41.31 46.89Q41 47.53 40.79 48.27Q40.58 49.01 40.47 49.72Q40.36 50.43 40.36 50.93L40.36 50.93Q40.36 51.77 40.70 52.26Q41.04 52.75 41.90 52.75L41.90 52.75Q42.68 52.75 43.40 52.33Q44.12 51.91 44.44 51.15L44.44 51.15Q44.84 51.35 45.02 51.64Q45.20 51.93 45.20 52.37L45.20 52.37Q45.20 53.29 44.55 53.94Q43.90 54.59 42.89 54.93Q41.88 55.27 40.74 55.27ZM49.58 54.87L45.58 55.27L47.40 45.99L50.96 45.65Q51.58 44.87 52.50 44.57Q53.42 44.27 54.32 44.27L54.32 44.27Q55.68 44.27 56.43 44.89Q57.18 45.51 57.18 46.79L57.18 46.79Q57.18 47.69 56.80 48.40Q56.42 49.11 55.73 49.58Q55.04 50.05 54.06 50.25L54.06 50.25L50.92 50.17Q51.56 49.99 52.11 49.52Q52.66 49.05 52.99 48.37Q53.32 47.69 53.32 46.93L53.32 46.93Q53.32 45.81 52.56 45.81L52.56 45.81Q52.02 45.81 51.66 46.31Q51.30 46.81 51.08 47.49Q50.86 48.17 50.74 48.79L50.74 48.79L49.58 54.87ZM54.10 55.27L54.10 55.27Q53.32 55.27 52.78 54.93Q52.24 54.59 51.88 54.04Q51.52 53.49 51.33 52.81Q51.14 52.13 51.04 51.44Q50.94 50.75 50.92 50.17L50.92 50.17L54.30 49.87L55.22 52.25Q55.42 52.79 55.75 53.20Q56.08 53.61 56.56 53.65L56.56 53.65Q56.34 54.47 55.63 54.87Q54.92 55.27 54.10 55.27ZM50.96 46.11L50.96 46.11L47.40 45.99Q47.58 45.17 47.73 44.35Q47.88 43.53 47.97 42.76Q48.06 41.99 48.08 41.27L48.08 41.27Q48.10 41.03 48.09 40.79Q48.08 40.55 48.08 40.33L48.08 40.33Q48.60 40.03 49.14 39.91Q49.68 39.79 50.16 39.79L50.16 39.79Q50.98 39.79 51.51 40.20Q52.04 40.61 52.02 41.57L52.02 41.57Q52.02 41.87 51.96 42.26Q51.90 42.65 51.81 43.10Q51.72 43.55 51.59 44.03Q51.46 44.51 51.30 45.03Q51.14 45.55 50.96 46.11ZM64.38 55.35L64.38 55.35Q63.32 55.35 62.38 55.24Q61.44 55.13 60.84 54.89Q60.24 54.65 60.14 54.27L60.14 54.27Q60.46 54.13 60.63 53.89Q60.80 53.65 60.91 53.22Q61.02 52.79 61.14 52.09L61.14 52.09L62.22 46.41Q62.48 44.95 63.22 44.16Q63.96 43.37 65.48 43.37L65.48 43.37Q66.26 43.37 66.80 43.65Q67.34 43.93 67.40 44.41L67.40 44.41Q66.84 44.61 66.68 45.16Q66.52 45.71 66.40 46.33L66.40 46.33L66.24 47.17L66.44 47.17Q67.54 47.17 68.19 46.81Q68.84 46.45 69.12 45.91Q69.40 45.37 69.40 44.79L69.40 44.79Q69.40 43.67 68.38 43.03Q67.36 42.39 65.64 42.39L65.64 42.39Q64.78 42.39 63.91 42.62Q63.04 42.85 62.32 43.33Q61.60 43.81 61.16 44.53Q60.72 45.25 60.72 46.25L60.72 46.25Q60.72 46.85 60.83 47.37Q60.94 47.89 61.26 48.55L61.26 48.55Q60.96 48.87 60.55 49.02Q60.14 49.17 59.80 49.17L59.80 49.17Q58.92 49.17 58.30 48.77Q57.68 48.37 57.37 47.72Q57.06 47.07 57.06 46.35L57.06 46.35Q57.06 44.87 58.06 43.67Q59.06 42.47 60.98 41.78Q62.90 41.09 65.66 41.09L65.66 41.09Q66.90 41.09 68.14 41.25Q69.38 41.41 70.40 41.79Q71.42 42.17 72.04 42.81Q72.66 43.45 72.66 44.41L72.66 44.41Q72.66 45.11 72.32 45.70Q71.98 46.29 71.45 46.74Q70.92 47.19 70.34 47.45L70.34 47.45Q70.86 47.61 71.43 47.94Q72 48.27 72.40 48.85Q72.80 49.43 72.80 50.37L72.80 50.37Q72.80 51.39 72.36 52.29Q71.92 53.19 70.95 53.88Q69.98 54.57 68.36 54.96Q66.74 55.35 64.38 55.35ZM65.06 53.97L65.06 53.97Q66.30 53.97 67.15 53.51Q68 53.05 68.42 52.28Q68.84 51.51 68.84 50.59L68.84 50.59Q68.84 49.51 68.11 49.05Q67.38 48.59 65.98 48.53L65.98 48.53L65.38 51.67Q65.16 52.75 64.90 53.27Q64.64 53.79 64.36 53.91L64.36 53.91Q64.56 53.93 64.73 53.95Q64.90 53.97 65.06 53.97ZM76.10 55.27L76.10 55.27Q75.10 55.27 74.46 54.76Q73.82 54.25 73.82 53.21L73.82 53.21Q73.82 52.83 73.90 52.21Q73.98 51.59 74.11 50.90Q74.24 50.21 74.36 49.59Q74.48 48.97 74.56 48.59L74.56 48.59L75.32 44.67L79.34 44.27L77.86 51.89Q77.84 52.05 77.80 52.29Q77.76 52.53 77.76 52.73L77.76 52.73Q77.76 53.11 77.98 53.43Q78.20 53.75 78.70 53.79L78.70 53.79Q78.46 54.55 77.70 54.91Q76.94 55.27 76.10 55.27ZM77.90 43.07L77.90 43.07Q76.98 43.07 76.37 42.67Q75.76 42.27 75.76 41.51L75.76 41.51Q75.76 40.73 76.41 40.30Q77.06 39.87 77.98 39.87L77.98 39.87Q78.90 39.87 79.48 40.29Q80.06 40.71 80.06 41.47L80.06 41.47Q80.06 42.25 79.44 42.66Q78.82 43.07 77.90 43.07ZM82.66 55.27L82.66 55.27Q81.68 55.27 80.98 54.75Q80.28 54.23 80.28 53.21L80.28 53.21Q80.28 52.81 80.37 52.20Q80.46 51.59 80.58 50.89Q80.70 50.19 80.83 49.56Q80.96 48.93 81.02 48.55L81.02 48.55L81.60 45.57L80.42 45.57L80.50 44.97Q81.70 44.61 82.88 43.99Q84.06 43.37 85.20 42.49L85.20 42.49L86.16 42.49L85.68 44.67L87.24 44.67L87.06 45.57L85.52 45.57L84.36 51.69Q84.32 51.95 84.28 52.20Q84.24 52.45 84.24 52.69L84.24 52.69Q84.24 53.43 84.60 53.63Q84.96 53.83 85.56 53.69L85.56 53.69Q85.28 54.35 84.80 54.70Q84.32 55.05 83.77 55.16Q83.22 55.27 82.66 55.27ZM90.78 55.27L90.78 55.27Q89.54 55.27 88.58 54.83Q87.62 54.39 87.07 53.47Q86.52 52.55 86.52 51.09L86.52 51.09Q86.52 49.79 86.90 48.57Q87.28 47.35 88.08 46.38Q88.88 45.41 90.11 44.84Q91.34 44.27 93.04 44.27L93.04 44.27Q93.92 44.27 94.69 44.47Q95.46 44.67 95.95 45.22Q96.44 45.77 96.44 46.79L96.44 46.79Q96.44 47.75 95.89 48.48Q95.34 49.21 94.21 49.63Q93.08 50.05 91.36 50.15L91.36 50.15Q91.12 50.17 90.86 50.17Q90.60 50.17 90.34 50.17L90.34 50.17Q90.32 50.39 90.30 50.62Q90.28 50.85 90.28 51.01L90.28 51.01Q90.28 51.85 90.65 52.30Q91.02 52.75 91.92 52.75L91.92 52.75Q92.68 52.75 93.47 52.42Q94.26 52.09 94.64 51.49L94.64 51.49Q94.92 51.65 95.03 51.89Q95.14 52.13 95.14 52.45L95.14 52.45Q95.14 53.31 94.52 53.95Q93.90 54.59 92.91 54.93Q91.92 55.27 90.78 55.27ZM90.46 49.31L90.46 49.31Q91.16 49.31 91.70 49.08Q92.24 48.85 92.61 48.47Q92.98 48.09 93.17 47.55Q93.36 47.01 93.36 46.37L93.36 46.37Q93.34 45.89 93.19 45.59Q93.04 45.29 92.62 45.29L92.62 45.29Q92.28 45.29 91.96 45.52Q91.64 45.75 91.36 46.23Q91.08 46.71 90.85 47.48Q90.62 48.25 90.46 49.31Z"></path></svg>